:SAMPLES-PER-SECOND 24
:FULLY-SPECIFIED
:DEGREES
511
root  1.30629 40.7854 39.2949 -36.762 -2.8891 24.7019
RightUpLeg  7.92107 11.6138 -16.3633
RightLeg  45.8192 1.39391 1.21112
RightFoot  9.26159 1.57326 -8.2845
RightToes  -2.08645e-008 3.77894e-005 6.81332e-007
Spine  28.7772 4.506 6.02208
Spine1  13.5167 12.491 -20.1901
HEad  -12.5605 -18.0385 7.74009
LeftShoulder1  7.81583 -13.4416 -39.9261
LeftArm  -33.2908 42.0711 -28.473
LeftForeArm  140.432 -70.9051 -147.875
LeftHand  -0.385918 3.5717 24.3468
RightShoulder  4.01544 6.88733 32.7564
RightArm  18.6235 16.859 28.1082
RightForeArm  29.5395 59.3668 16.4229
RightHand  0.0348905 10.2477 -0.154386
LeftUpLeg  -74.1877 13.6745 26.1338
LeftLeg  14.7954 11.5011 4.57275
LeftFoot  -4.20244 0.9729 -15.1225
LeftToes  1.24767e-006 1.47042e-008 1.32732e-009
512
root  1.18693 40.646 39.5024 -36.3485 -2.94415 24.0454
RightUpLeg  8.15504 10.6796 -15.5985
RightLeg  46.0265 0.946575 0.72408
RightFoot  7.61719 1.63369 -9.44066
RightToes  -2.08645e-008 3.77894e-005 6.81332e-007
Spine  26.8708 4.1229 5.28369
Spine1  14.3215 11.2515 -18.8706
HEad  -15.3177 -15.8913 7.93154
LeftShoulder1  8.05774 -13.6894 -40.6268
LeftArm  -28.5782 35.1954 -25.2621
LeftForeArm  137.778 -72.277 -144.89
LeftHand  -0.484705 3.06903 23.9969
RightShoulder  4.10345 6.9502 33.3652
RightArm  16.7785 13.4311 27.2401
RightForeArm  30.5462 60.6717 17.333
RightHand  -0.00478907 9.95394 -0.442332
LeftUpLeg  -70.097 11.4039 21.8786
LeftLeg  11.6339 6.4114 3.22176
LeftFoot  1.70087 1.83536 -16.0018
LeftToes  1.24767e-006 1.47042e-008 1.32732e-009
513
root  0.970834 40.7004 39.6196 -35.3958 -2.54736 22.335
RightUpLeg  9.16672 9.00226 -14.0938
RightLeg  44.2143 0.895001 0.621708
RightFoot  6.77258 1.69609 -10.3096
RightToes  -2.08645e-008 3.77894e-005 6.81332e-007
Spine  23.842 3.5006 5.2938
Spine1  15.9623 9.9044 -17.222
HEad  -17.9497 -14.1381 8.26896
LeftShoulder1  8.32864 -13.9612 -41.3967
LeftArm  -22.7838 26.2465 -21.506
LeftForeArm  135.939 -73.898 -140.917
LeftHand  -0.503436 2.82155 22.5155
RightShoulder  4.16633 6.97373 33.8751
RightArm  14.6398 8.20614 26.3812
RightForeArm  31.3977 62.3916 18.7159
RightHand  -0.107747 9.92552 -1.22339
LeftUpLeg  -62.4501 9.99071 14.8611
LeftLeg  4.62993 1.82145 1.14142
LeftFoot  2.6538 2.37232 -19.3837
LeftToes  1.24767e-006 1.47042e-008 1.32732e-009
514
root  0.829555 40.8824 39.7732 -33.8368 -3.84772 20.6848
RightUpLeg  9.22316 8.29106 -12.0155
RightLeg  41.7909 0.987449 0.650589
RightFoot  6.71222 1.77206 -10.8217
RightToes  -2.08645e-008 3.77894e-005 6.81332e-007
Spine  20.6877 3.01221 6.53908
Spine1  16.1829 8.92106 -16.3732
HEad  -19.5394 -12.3665 8.46805
LeftShoulder1  8.54888 -14.1564 -42.07
LeftArm  -17.8856 18.1751 -19.1077
LeftForeArm  136.631 -74.8822 -138.434
LeftHand  -0.575213 2.11891 20.2854
RightShoulder  4.21579 6.96329 34.3833
RightArm  12.9193 1.15153 25.8218
RightForeArm  33.1502 64.4122 20.5126
RightHand  -0.0510271 9.54827 -0.795123
LeftUpLeg  -51.8326 8.35843 12.898
LeftLeg  -0.435598 3.66481 -0.737499
LeftFoot  0.296699 2.29344 -22.2933
LeftToes  1.24767e-006 1.47042e-008 1.32732e-009
515
root  0.766825 41.0236 40.0096 -31.4277 -6.97723 19.0157
RightUpLeg  7.67755 8.1669 -9.56607
RightLeg  39.9 1.89564 1.41198
RightFoot  6.43641 1.8367 -11.413
RightToes  -2.08645e-008 3.77894e-005 6.81332e-007
Spine  17.2089 2.6285 8.05342
Spine1  15.1809 7.8778 -15.0613
HEad  -20.5566 -9.51228 8.36113
LeftShoulder1  8.43065 -14.0415 -41.7375
LeftArm  -15.4274 13.9115 -19.6911
LeftForeArm  143.164 -74.7668 -140.01
LeftHand  -0.640641 1.09624 17.2947
RightShoulder  4.27773 6.98892 34.8694
RightArm  12.7306 -6.53469 24.8117
RightForeArm  36.4093 67.6466 24.1505
RightHand  0.0637462 9.72582 0.0827886
LeftUpLeg  -41.192 7.16407 12.2424
LeftLeg  -1.68241 8.96606 -1.01329
LeftFoot  0.355071 2.33684 -22.5763
LeftToes  1.24767e-006 1.47042e-008 1.32732e-009
516
root  0.688031 41.0019 40.1863 -28.0386 -9.98895 16.7371
RightUpLeg  4.74932 7.66063 -6.81633
RightLeg  39.034 2.98624 2.31123
RightFoot  6.04934 1.91049 -12.1616
RightToes  -2.08645e-008 3.77894e-005 6.81332e-007
Spine  13.5675 1.74617 7.73464
Spine1  14.0818 5.66146 -11.3408
HEad  -21.3273 -4.98543 7.84475
LeftShoulder1  8.12673 -13.7693 -40.7989
LeftArm  -15.1752 13.6591 -22.2021
LeftForeArm  151.809 -73.4059 -144.812
LeftHand  -0.609431 0.551242 14.6426
RightShoulder  4.27447 7.00911 34.7615
RightArm  14.6209 -12.7621 22.8683
RightForeArm  40.648 71.0431 29.4952
RightHand  -0.079915 9.37988 -1.0221
LeftUpLeg  -32.3914 6.21449 10.9155
LeftLeg  2.45495 12.211 0.172925
LeftFoot  -0.0226597 1.96861 -19.672
LeftToes  1.24767e-006 1.47042e-008 1.32732e-009
517
root  0.589254 40.785 40.3001 -23.9373 -12.0209 13.9303
RightUpLeg  0.688523 5.84461 -4.39207
RightLeg  39.5055 4.21933 3.43984
RightFoot  5.358 1.90629 -12.6661
RightToes  -2.08645e-008 3.77894e-005 6.81332e-007
Spine  10.5222 0.155709 5.31892
Spine1  12.5582 2.02703 -5.08625
HEad  -21.6543 0.714509 6.70755
LeftShoulder1  7.99051 -13.6482 -40.3636
LeftArm  -14.9439 15.0026 -23.8774
LeftForeArm  156.982 -71.1015 -149.93
LeftHand  -0.57451 0.479198 13.6201
RightShoulder  4.18198 6.95747 34.0847
RightArm  17.2365 -17.3666 19.8735
RightForeArm  46.3918 73.7796 35.652
RightHand  -0.036247 9.38965 -0.657932
LeftUpLeg  -25.6983 6.20394 8.16317
LeftLeg  11.8962 9.20997 2.25548
LeftFoot  -1.88605 1.49062 -17.7884
LeftToes  1.24767e-006 1.47042e-008 1.32732e-009
